{
    "asset" : {
        "generator" : "Khronos glTF Blender I/O v1.6.16",
        "version" : "2.0"
    },
    "scene" : 0,
    "scenes" : [
        {
            "name" : "Scene",
            "nodes" : [
                0
            ]
        }
    ],
    "nodes" : [
        {
            "mesh" : 0,
            "name" : "Stage14_0",
            "scale" : [
                5,
                5,
                5
            ],
            "translation" : [
                0,
                -2,
                0
            ]
        }
    ],
    "materials" : [
        {
            "doubleSided" : true,
            "name" : "TerrianMaterial.051",
            "pbrMetallicRoughness" : {
                "baseColorFactor" : [
                    0.06894905865192413,
                    0.0835314393043518,
                    0.06720151752233505,
                    1
                ],
                "metallicFactor" : 0,
                "roughnessFactor" : 0.5
            }
        },
        {
            "doubleSided" : true,
            "name" : "\u30de\u30c6\u30ea\u30a2\u30eb.113",
            "pbrMetallicRoughness" : {
                "baseColorTexture" : {
                    "index" : 0
                },
                "metallicFactor" : 0,
                "roughnessFactor" : 0.5
            }
        }
    ],
    "meshes" : [
        {
            "name" : "\u7acb\u65b9\u4f53.098",
            "primitives" : [
                {
                    "attributes" : {
                        "POSITION" : 0,
                        "NORMAL" : 1,
                        "TEXCOORD_0" : 2
                    },
                    "indices" : 3,
                    "material" : 0
                },
                {
                    "attributes" : {
                        "POSITION" : 4,
                        "NORMAL" : 5,
                        "TEXCOORD_0" : 6
                    },
                    "indices" : 7,
                    "material" : 1
                }
            ]
        }
    ],
    "textures" : [
        {
            "sampler" : 0,
            "source" : 0
        }
    ],
    "images" : [
        {
            "mimeType" : "image/png",
            "name" : "terrain_3",
            "uri" : "terrain_3.png"
        }
    ],
    "accessors" : [
        {
            "bufferView" : 0,
            "componentType" : 5126,
            "count" : 360,
            "max" : [
                5,
                7,
                3
            ],
            "min" : [
                -1,
                -7,
                -7
            ],
            "type" : "VEC3"
        },
        {
            "bufferView" : 1,
            "componentType" : 5126,
            "count" : 360,
            "type" : "VEC3"
        },
        {
            "bufferView" : 2,
            "componentType" : 5126,
            "count" : 360,
            "type" : "VEC2"
        },
        {
            "bufferView" : 3,
            "componentType" : 5123,
            "count" : 540,
            "type" : "SCALAR"
        },
        {
            "bufferView" : 4,
            "componentType" : 5126,
            "count" : 384,
            "max" : [
                5,
                7,
                3
            ],
            "min" : [
                -1,
                -7,
                -7
            ],
            "type" : "VEC3"
        },
        {
            "bufferView" : 5,
            "componentType" : 5126,
            "count" : 384,
            "type" : "VEC3"
        },
        {
            "bufferView" : 6,
            "componentType" : 5126,
            "count" : 384,
            "type" : "VEC2"
        },
        {
            "bufferView" : 7,
            "componentType" : 5123,
            "count" : 576,
            "type" : "SCALAR"
        }
    ],
    "bufferViews" : [
        {
            "buffer" : 0,
            "byteLength" : 4320,
            "byteOffset" : 0
        },
        {
            "buffer" : 0,
            "byteLength" : 4320,
            "byteOffset" : 4320
        },
        {
            "buffer" : 0,
            "byteLength" : 2880,
            "byteOffset" : 8640
        },
        {
            "buffer" : 0,
            "byteLength" : 1080,
            "byteOffset" : 11520
        },
        {
            "buffer" : 0,
            "byteLength" : 4608,
            "byteOffset" : 12600
        },
        {
            "buffer" : 0,
            "byteLength" : 4608,
            "byteOffset" : 17208
        },
        {
            "buffer" : 0,
            "byteLength" : 3072,
            "byteOffset" : 21816
        },
        {
            "buffer" : 0,
            "byteLength" : 1152,
            "byteOffset" : 24888
        }
    ],
    "samplers" : [
        {
            "magFilter" : 9729,
            "minFilter" : 9987
        }
    ],
    "buffers" : [
        {
            "byteLength" : 26040,
            "uri" : "Stage14.bin"
        }
    ]
}
