{
    "asset" : {
        "generator" : "Khronos glTF Blender I/O v1.6.16",
        "version" : "2.0"
    },
    "scene" : 0,
    "scenes" : [
        {
            "name" : "Scene",
            "nodes" : [
                0
            ]
        }
    ],
    "nodes" : [
        {
            "mesh" : 0,
            "name" : "Stage10_0",
            "scale" : [
                5,
                4,
                5
            ],
            "translation" : [
                -10,
                -1,
                -10
            ]
        }
    ],
    "materials" : [
        {
            "doubleSided" : true,
            "name" : "TerrianMaterial.009",
            "pbrMetallicRoughness" : {
                "baseColorFactor" : [
                    0.06894905865192413,
                    0.0835314393043518,
                    0.06720151752233505,
                    1
                ],
                "metallicFactor" : 0,
                "roughnessFactor" : 0.5
            }
        },
        {
            "doubleSided" : true,
            "name" : "TerrianMaterial.010",
            "pbrMetallicRoughness" : {
                "baseColorFactor" : [
                    0.06894905865192413,
                    0.0835314393043518,
                    0.06720151752233505,
                    1
                ],
                "metallicFactor" : 0,
                "roughnessFactor" : 0.5
            }
        },
        {
            "doubleSided" : true,
            "name" : "\u30de\u30c6\u30ea\u30a2\u30eb.113",
            "pbrMetallicRoughness" : {
                "baseColorTexture" : {
                    "index" : 0
                },
                "metallicFactor" : 0,
                "roughnessFactor" : 0.5
            }
        }
    ],
    "meshes" : [
        {
            "name" : "\u7acb\u65b9\u4f53.005",
            "primitives" : [
                {
                    "attributes" : {
                        "POSITION" : 0,
                        "NORMAL" : 1,
                        "TEXCOORD_0" : 2
                    },
                    "indices" : 3,
                    "material" : 0
                },
                {
                    "attributes" : {
                        "POSITION" : 4,
                        "NORMAL" : 5,
                        "TEXCOORD_0" : 6
                    },
                    "indices" : 7,
                    "material" : 1
                },
                {
                    "attributes" : {
                        "POSITION" : 8,
                        "NORMAL" : 9,
                        "TEXCOORD_0" : 10
                    },
                    "indices" : 11,
                    "material" : 2
                }
            ]
        }
    ],
    "textures" : [
        {
            "sampler" : 0,
            "source" : 0
        }
    ],
    "images" : [
        {
            "mimeType" : "image/png",
            "name" : "terrain_3",
            "uri" : "terrain_3.png"
        }
    ],
    "accessors" : [
        {
            "bufferView" : 0,
            "componentType" : 5126,
            "count" : 4,
            "max" : [
                2.999999761581421,
                -1,
                -0.9999999403953552
            ],
            "min" : [
                0.9999999403953552,
                -3.5,
                -0.9999999403953552
            ],
            "type" : "VEC3"
        },
        {
            "bufferView" : 1,
            "componentType" : 5126,
            "count" : 4,
            "type" : "VEC3"
        },
        {
            "bufferView" : 2,
            "componentType" : 5126,
            "count" : 4,
            "type" : "VEC2"
        },
        {
            "bufferView" : 3,
            "componentType" : 5123,
            "count" : 6,
            "type" : "SCALAR"
        },
        {
            "bufferView" : 4,
            "componentType" : 5126,
            "count" : 8,
            "max" : [
                10.999999046325684,
                1,
                4.999999523162842
            ],
            "min" : [
                8.999999046325684,
                -1,
                -2.999999761581421
            ],
            "type" : "VEC3"
        },
        {
            "bufferView" : 5,
            "componentType" : 5126,
            "count" : 8,
            "type" : "VEC3"
        },
        {
            "bufferView" : 6,
            "componentType" : 5126,
            "count" : 8,
            "type" : "VEC2"
        },
        {
            "bufferView" : 7,
            "componentType" : 5123,
            "count" : 12,
            "type" : "SCALAR"
        },
        {
            "bufferView" : 8,
            "componentType" : 5126,
            "count" : 232,
            "max" : [
                10.999999046325684,
                1,
                6.999999523162842
            ],
            "min" : [
                -0.9999999403953552,
                -3.5,
                -4.999999523162842
            ],
            "type" : "VEC3"
        },
        {
            "bufferView" : 9,
            "componentType" : 5126,
            "count" : 232,
            "type" : "VEC3"
        },
        {
            "bufferView" : 10,
            "componentType" : 5126,
            "count" : 232,
            "type" : "VEC2"
        },
        {
            "bufferView" : 11,
            "componentType" : 5123,
            "count" : 390,
            "type" : "SCALAR"
        }
    ],
    "bufferViews" : [
        {
            "buffer" : 0,
            "byteLength" : 48,
            "byteOffset" : 0
        },
        {
            "buffer" : 0,
            "byteLength" : 48,
            "byteOffset" : 48
        },
        {
            "buffer" : 0,
            "byteLength" : 32,
            "byteOffset" : 96
        },
        {
            "buffer" : 0,
            "byteLength" : 12,
            "byteOffset" : 128
        },
        {
            "buffer" : 0,
            "byteLength" : 96,
            "byteOffset" : 140
        },
        {
            "buffer" : 0,
            "byteLength" : 96,
            "byteOffset" : 236
        },
        {
            "buffer" : 0,
            "byteLength" : 64,
            "byteOffset" : 332
        },
        {
            "buffer" : 0,
            "byteLength" : 24,
            "byteOffset" : 396
        },
        {
            "buffer" : 0,
            "byteLength" : 2784,
            "byteOffset" : 420
        },
        {
            "buffer" : 0,
            "byteLength" : 2784,
            "byteOffset" : 3204
        },
        {
            "buffer" : 0,
            "byteLength" : 1856,
            "byteOffset" : 5988
        },
        {
            "buffer" : 0,
            "byteLength" : 780,
            "byteOffset" : 7844
        }
    ],
    "samplers" : [
        {
            "magFilter" : 9729,
            "minFilter" : 9987
        }
    ],
    "buffers" : [
        {
            "byteLength" : 8624,
            "uri" : "Stage10.bin"
        }
    ]
}
