{
    "asset" : {
        "generator" : "Khronos glTF Blender I/O v1.6.16",
        "version" : "2.0"
    },
    "scene" : 0,
    "scenes" : [
        {
            "name" : "Scene",
            "nodes" : [
                0
            ]
        }
    ],
    "nodes" : [
        {
            "mesh" : 0,
            "name" : "ShowStage1_\u7acb\u65b9\u4f53.109",
            "rotation" : [
                0.7071068286895752,
                0,
                0,
                0.7071067094802856
            ]
        }
    ],
    "materials" : [
        {
            "alphaCutoff" : 0.5,
            "alphaMode" : "MASK",
            "doubleSided" : true,
            "name" : "terrain",
            "pbrMetallicRoughness" : {}
        }
    ],
    "meshes" : [
        {
            "name" : "ShowStage1_\u7acb\u65b9\u4f53.109",
            "primitives" : [
                {
                    "attributes" : {
                        "POSITION" : 0,
                        "NORMAL" : 1,
                        "TEXCOORD_0" : 2
                    },
                    "indices" : 3,
                    "material" : 0
                }
            ]
        }
    ],
    "accessors" : [
        {
            "bufferView" : 0,
            "componentType" : 5126,
            "count" : 3242,
            "max" : [
                610,
                390,
                170
            ],
            "min" : [
                -70,
                -50,
                -30
            ],
            "type" : "VEC3"
        },
        {
            "bufferView" : 1,
            "componentType" : 5126,
            "count" : 3242,
            "type" : "VEC3"
        },
        {
            "bufferView" : 2,
            "componentType" : 5126,
            "count" : 3242,
            "type" : "VEC2"
        },
        {
            "bufferView" : 3,
            "componentType" : 5123,
            "count" : 5256,
            "type" : "SCALAR"
        }
    ],
    "bufferViews" : [
        {
            "buffer" : 0,
            "byteLength" : 38904,
            "byteOffset" : 0
        },
        {
            "buffer" : 0,
            "byteLength" : 38904,
            "byteOffset" : 38904
        },
        {
            "buffer" : 0,
            "byteLength" : 25936,
            "byteOffset" : 77808
        },
        {
            "buffer" : 0,
            "byteLength" : 10512,
            "byteOffset" : 103744
        }
    ],
    "buffers" : [
        {
            "byteLength" : 114256,
            "uri" : "Stage1.bin"
        }
    ]
}
